<?xml version="1.0" encoding="UTF-8" standalone="no"?>
<!-- Created with Inkscape (http://www.inkscape.org/) -->

<svg
   version="1.1"
   id="svg55"
   width="68.725456mm"
   height="70.245811mm"
   viewBox="0 0 207.7998 212.39678"
   sodipodi:docname="frog_soap_dishB.svg"
   inkscape:version="1.1.2 (0a00cf5339, 2022-02-04)"
   xmlns:inkscape="http://www.inkscape.org/namespaces/inkscape"
   xmlns:sodipodi="http://sodipodi.sourceforge.net/DTD/sodipodi-0.dtd"
   xmlns="http://www.w3.org/2000/svg"
   xmlns:svg="http://www.w3.org/2000/svg">
  <defs
     id="defs59">
    <inkscape:path-effect
       effect="spiro"
       id="path-effect13134"
       is_visible="true"
       lpeversion="1" />
  </defs>
  <sodipodi:namedview
     id="namedview57"
     pagecolor="#ffffff"
     bordercolor="#666666"
     borderopacity="1.0"
     inkscape:pageshadow="2"
     inkscape:pageopacity="0.0"
     inkscape:pagecheckerboard="0"
     showgrid="false"
     inkscape:zoom="2.6878307"
     inkscape:cx="178.39665"
     inkscape:cy="128.72835"
     inkscape:window-width="1920"
     inkscape:window-height="1061"
     inkscape:window-x="1366"
     inkscape:window-y="0"
     inkscape:window-maximized="1"
     inkscape:current-layer="g61"
     fit-margin-top="0"
     fit-margin-left="0"
     fit-margin-right="0"
     fit-margin-bottom="0"
     scale-x="0.8"
     units="mm"
     width="70mm"
     inkscape:document-units="mm" />
  <g
     inkscape:groupmode="layer"
     inkscape:label="Image"
     id="g61"
     transform="translate(-177.282, -122.323)">
    <g
       id="g12473">
      <path
         d="m 225.73239,285.05259 c 0.0582,-0.036 -1.04644,0.10267 1.4379,-0.10444 2.48433,-0.20713 10.12789,-1.41692 13.02451,-2.86489 2.8966,-1.44797 18.09195,-6.73229 16.7616,-11.28255 -4.3005,-2.32898 -9.85875,-0.51516 -10.4096,-5.03697 -0.0854,-3.16764 2.64366,-6.99638 5.8361,-6.5099 2.24766,0.38774 4.25447,2.38982 5.2874,4.23137 1.22396,2.32193 3.91528,3.26413 5.7414,3.63108 1.9241,0.3667 6.75771,2.26193 10.13259,0.73955 1.4012,-0.63207 4.01552,-1.7856 3.73779,-3.98979 -1.02989,-4.84593 -0.14813,-8.74006 1.42197,-13.32467 0.94914,-2.74854 2.3527,-7.21481 5.63213,-6.6225 5.12859,2.18674 5.50226,2.16927 11.10332,3.05264 11.07429,-0.14013 27.0643,-4.73793 33.14344,-9.32061 6.07916,-4.5827 7.71598,-8.26332 7.72565,-8.94527 0.002,-0.13659 -1.57689,-1.88245 -1.79043,-2.10887 -6.5406,-1.57709 -13.73902,-4.13639 -17.85597,-5.29298 -16.34378,-0.72279 -21.61644,0.92486 -36.52719,1.74266 -4.31782,0.22719 -10.52493,2.17104 -9.46543,0.23694 0.74666,-1.16672 2.29372,-1.70664 3.22173,-2.2219 11.02297,-6.12032 25.74698,-5.44554 37.27508,-6.69969 2.64667,0.01 5.21626,0.70055 7.7253,0.95029 17.00219,4.32279 35.83678,7.19191 20.60016,21.66586 -2.25473,1.2593 -4.67578,3.32942 -6.15208,4.50174 -1.4763,1.17231 -0.18746,0.39279 -8.73692,4.71683 -8.54945,4.32405 -22.01312,5.79302 -32.55436,4.6255 -0.84235,0.18117 -3.98041,-0.33599 -3.98943,0.45954 -1.31156,4.60027 -1.82141,10.45356 1.42345,12.66808 3.85902,1.47718 8.91742,0.80807 12.47907,0.92593 1.54443,0.11703 4.30763,-0.69724 4.32873,-2.26348 8e-4,-0.49952 -2.30612,-1.64762 -2.92892,-2.10146 -4.06448,-1.77553 -8.6349,-1.13454 -11.95032,-3.59771 0.64844,-3.04975 7.77215,-2.12652 10.72499,-2.00536 0.90656,0.12322 3.38223,0.82053 8.13714,0.79609 4.75492,-0.0244 9.1323,-1.22335 13.46279,-2.03709 4.33051,-0.81374 4.83699,-1.76031 6.89603,-2.44627 9.38042,-3.64583 9.06261,-1.41826 5.44807,1.39606 -1.55321,1.93254 -6.3167,3.83861 -8.79686,6.45453 -2.65815,2.75183 -6.32719,5.5821 -7.70495,7.70223 -1.75823,2.78254 -6.20419,8.11243 -7.58038,11.62026 -0.50794,1.26858 1.40474,-0.0993 1.55932,-0.10789 1.05336,-1.18839 3.80795,-3.22878 7.3933,-2.45723 3.58535,0.77155 4.99509,3.42106 13.08785,1.51898 3.45576,-1.21248 5.84225,-1.34512 8.91653,-2.89322 0.54149,-0.30225 0.70892,-0.75752 0.82083,-1.25871 -1.04074,-1.48071 -2.87608,-2.21426 -4.08887,-2.19469 -2.06181,-0.29018 -4.13356,-1.16941 -5.30685,-2.93478 0,0 -0.43132,-0.62445 -0.0641,-1.74587 0.36723,-1.12142 2.56023,-3.99313 5.60838,-3.36306 3.04814,0.63007 4.29699,1.99261 5.77462,2.81177 1.47763,0.81915 2.91797,1.0132 4.25344,0.68638 0.094,-0.0327 0.59716,-0.25672 1.11808,-0.49773 2.18862,-1.22759 6.93179,-1.86504 6.7793,-2.30331 -0.10546,-0.45357 -0.56866,-0.49879 -1.21803,-0.68461 -0.83598,-0.17136 -0.49848,-1.10749 -0.10247,-1.64491 4.06713,-2.40576 8.5247,-7.13012 11.14783,-5.7209 -0.81342,1.40407 -2.68082,3.28815 -3.94174,4.56701 -1.35788,0.99442 -0.10701,2.54854 0.72579,2.08189 5.04394,-2.94446 13.22516,-8.52649 13.75818,-10.44511 0.53302,-1.91862 -2.13932,-1.73928 -3.58944,-1.61466 -5.28882,0.37631 -11.71977,1.64351 -15.55162,4.72626 -2.75383,2.35168 -2.18335,1.83155 -7.37421,4.4416 -0.46727,0.39232 -4.02877,2.38059 -4.49631,2.39707 -0.17612,0 -3.00825,-0.24481 -1.54899,-1.75892 0.69227,-0.7183 6.32015,-4.84781 10.02815,-10.90454 4.10817,-6.7104 6.24974,-15.57487 5.19348,-20.18553 -2.00962,-8.77219 -3.34283,-8.90647 -5.55472,-14.14078 -0.38786,-1.38083 -1.32549,-2.17383 -2.16765,-3.21161 -3.09486,-3.17632 -5.02427,-7.44085 -6.47522,-10.56845 -2.39973,-4.92263 0.73161,-2.92883 2.71313,-0.83844 1.24341,1.29621 1.5823,1.6742 1.5823,1.76477 6.62007,5.36908 6.29336,4.93856 11.85994,8.48574 2.195,2.00989 15.70318,6.46066 12.27603,2.50823 -3.93766,-4.8603 -9.09372,-8.20784 -13.49091,-12.29335 -0.32103,-0.31865 -1.00362,-0.93842 -1.51683,-1.37727 -6.9275,-5.46519 -3.88414,-0.95699 -4.95812,-0.40262 -3.96354,-1.09185 -7.78461,-3.6309 -10.77698,-5.09145 -4.19146,-2.03626 -15.16269,-8.69794 -17.03704,-9.09586 -1.87435,-0.39792 -3.01887,1.6705 -4.25692,2.45033 -0.55714,0.42955 -1.20998,0.69391 -1.73919,0.80654 -2.50446,0.72766 -4.83417,-1.43983 -4.89712,-3.44505 0.38288,-1.51739 1.50419,-3.40213 2.18157,-4.11239 0.92499,-0.92498 3.65452,-0.47303 3.33267,-1.31389 -0.32185,-0.84086 -2.41399,-1.39303 -2.79474,-1.59583 -7.65779,-4.10702 -16.82159,-7.47514 -25.52903,-10.35143 -1.49123,-0.41686 -3.15011,-0.28772 -4.30087,0.65729 -1.49213,4.04683 2.71451,9.08214 5.05839,11.97419 0.79902,0.93336 1.44799,1.86642 2.19043,2.85695 3.75551,3.64468 10.42255,8.07638 14.12738,11.02384 8.37347,5.51665 11.81229,10.18092 17.17766,12.61822 5.36538,2.43729 -1.12278,2.73245 -2.20766,2.88917 -14.90408,2.12809 -32.75124,-0.57383 -44.91275,1.41109 -5.41641,1.36656 -11.24133,3.24218 -14.3882,3.7683 -14.07249,6.5534 -12.31984,4.73563 -12.83635,-0.30837 -0.51651,-5.04401 -2.05189,-2.51152 -4.92835,0.45309 -4.78208,3.69167 0.0178,4.74481 0.12344,8.72254 -0.16392,4.17739 -7.49898,3.37968 -10.76699,3.71766 -15.02591,3.99572 -16.23491,5.48622 -26.55821,10.73361 -4.14828,3.50015 -6.97377,6.55412 -9.09471,11.05843 -3.95201,7.41661 -6.20041,14.60181 -3.91348,22.6132 4.89131,12.37773 20.49975,13.297 27.33115,13.77813 z"
         style="font-variation-settings:normal;opacity:1;vector-effect:none;fill:#ff0000;fill-opacity:1;stroke-width:0.0911872;stroke-linecap:butt;stroke-linejoin:miter;stroke-miterlimit:4;stroke-dasharray:none;stroke-dashoffset:0;stroke-opacity:1;-inkscape-stroke:none;stop-color:#000000;stop-opacity:1"
         id="path12135"
         sodipodi:nodetypes="csscccccsccccscccccscccsscccccccccsccccccsccccczsscccccccczccccsssccccccccccczcccczcccccczccczcccccccc" />
      <path
         d="m 310.58911,293.79372 c 10.37601,-0.11844 3.75502,2.89065 17.7245,-4.67156 1.41868,-0.63859 2.71979,-1.52144 2.05556,-2.30939 -0.0386,-0.0386 -0.88192,-0.0571 -1.87393,-0.0408 -0.99204,0.0162 -2.1884,0.0354 -2.6586,0.0429 -3.57768,-0.41011 -6.5626,3.22128 -10.7982,-2.90894 -0.20909,-0.18356 -0.47689,-0.33376 -0.59515,-0.33376 -3.05328,0.36432 -9.36704,11.17143 -6.99768,11.2283 0,0 1.91462,-1.60958 3.1435,-1.00664 z"
         style="font-variation-settings:normal;opacity:1;vector-effect:none;fill:#d40000;fill-opacity:1;stroke-width:0.0911872;stroke-linecap:butt;stroke-linejoin:miter;stroke-miterlimit:4;stroke-dasharray:none;stroke-dashoffset:0;stroke-opacity:1;-inkscape-stroke:none;stop-color:#000000;stop-opacity:1"
         id="path9289" />
      <path
         d="m 194.08621,248.90013 c 0.11121,-0.17187 0.70668,-0.81399 1.32328,-1.42697 0.6166,-0.61296 1.12109,-1.16251 1.12109,-1.22123 2.09887,-2.6829 4.67799,-5.64027 2.91952,-8.30231 -0.90442,-1.20299 -2.21047,-2.12787 -3.65815,-2.43283 -0.40518,-0.1846 -0.58403,0 -0.42941,0.44375 -0.50528,4.54706 -1.40127,8.02436 -3.43896,11.34113 -1.01799,1.05336 -2.78276,1.89086 -3.59148,2.18155 -0.007,0.26805 1.13303,1.111 1.28089,1.02725 2.00868,0.062 3.09736,-0.58634 4.47322,-1.61034 z m -7.0163,-0.43981 c -1.20589,-1.59023 -1.32344,-3.91191 -1.74061,-5.64991 -0.47275,-2.5096 -1.71286,0.4961 -1.52583,3.49761 0.32374,1.91738 1.94783,2.46572 2.61884,2.94209 0.37087,0.2633 0.6476,-0.63352 0.6476,-0.78979 z m 5.50759,-12.50923 c 0.26645,-0.11948 -0.15034,-0.70183 -0.15034,-0.76136 -3.85592,-0.51211 -5.51336,1.46499 -7.4358,3.90985 -0.85513,4.74145 6.58031,-2.67947 7.58614,-3.14849 z"
         style="font-variation-settings:normal;opacity:1;vector-effect:none;fill:#aa0000;fill-opacity:1;stroke-width:0.0911872;stroke-linecap:butt;stroke-linejoin:miter;stroke-miterlimit:4;stroke-dasharray:none;stroke-dashoffset:0;stroke-opacity:1;-inkscape-stroke:none;stop-color:#000000;stop-opacity:1"
         id="path8151" />
      <path
         d="m 321.32801,260.11867 c 0.2953,-0.26324 0.86797,-0.67131 1.2726,-0.90677 2.99591,-1.83592 0.30009,-1.32795 -1.76155,-0.65895 -2.7777,0.97148 -6.2841,0.70472 -8.74826,1.73041 -0.65023,0.28936 -0.48014,1.61848 -0.33137,3.91999 0.21359,3.08523 -0.50262,6.16224 0.35954,6.22688 3.60405,-2.5474 5.90305,-7.37296 9.20904,-10.31156 z"
         style="font-variation-settings:normal;opacity:1;vector-effect:none;fill:#d40000;fill-opacity:1;stroke-width:0.0911872;stroke-linecap:butt;stroke-linejoin:miter;stroke-miterlimit:4;stroke-dasharray:none;stroke-dashoffset:0;stroke-opacity:1;-inkscape-stroke:none;stop-color:#000000;stop-opacity:1"
         id="path8932" />
      <path
         d="m 313.53073,304.38163 c 0.50266,-0.5725 0.45324,-0.68028 -0.31346,-0.68358 -2.18542,-0.32518 -3.63172,-0.26542 -4.8088,-2.06662 0,-0.26357 -1.32001,-0.69926 -1.49517,-0.59072 -0.13118,0.0813 -0.16461,0.43608 -0.16461,1.74684 0.0142,1.70492 0.62513,2.92246 0.91855,4.51808 0.0951,1.38763 0.18714,2.46308 0.22052,2.57548 3.21384,-1.99984 4.13085,-3.28144 5.64297,-5.49948 z"
         style="font-variation-settings:normal;opacity:1;vector-effect:none;fill:#ff0000;fill-opacity:1;stroke-width:0.0911872;stroke-linecap:butt;stroke-linejoin:miter;stroke-miterlimit:4;stroke-dasharray:none;stroke-dashoffset:0;stroke-opacity:1;-inkscape-stroke:none;stop-color:#000000;stop-opacity:1"
         id="path9620" />
      <path
         d="m 330.79285,314.15822 c 1.05369,-1.74173 1.40884,-3.78226 1.2494,-5.55862 0.0779,-0.38318 -0.21003,-0.50906 -0.59188,-0.25886 -0.35576,3.20686 -4.13676,9.35744 -0.65751,5.81748 z"
         style="font-variation-settings:normal;opacity:1;vector-effect:none;fill:#ff0000;fill-opacity:1;stroke-width:0.0911872;stroke-linecap:butt;stroke-linejoin:miter;stroke-miterlimit:4;stroke-dasharray:none;stroke-dashoffset:0;stroke-opacity:1;-inkscape-stroke:none;stop-color:#000000;stop-opacity:1"
         id="path9933" />
      <path
         d="m 321.07948,321.01852 c 1.11676,-1.3513 8.75208,-12.48813 7.21013,-13.57721 -3.97683,-0.93347 -11.64469,2.45925 -13.4886,5.45629 -0.71829,1.34004 -1.79548,1.33852 -1.19548,2.63958 0.25037,0.53458 0.36313,1.1713 0.69387,1.59746 2.63656,3.31504 3.54216,7.0162 6.78008,3.88388 z"
         style="font-variation-settings:normal;opacity:1;vector-effect:none;fill:#ff0000;fill-opacity:1;stroke-width:0.0911872;stroke-linecap:butt;stroke-linejoin:miter;stroke-miterlimit:4;stroke-dasharray:none;stroke-dashoffset:0;stroke-opacity:1;-inkscape-stroke:none;stop-color:#000000;stop-opacity:1"
         id="path10207" />
      <path
         d="m 334.67373,182.2004 c 3.32483,3.96004 9.0035,6.93149 13.14606,7.75169 14.99928,3.72287 -13.02644,-10.46232 -13.14606,-7.75169 z"
         style="font-variation-settings:normal;opacity:1;vector-effect:none;fill:#ff0000;fill-opacity:1;stroke-width:0.0911872;stroke-linecap:butt;stroke-linejoin:miter;stroke-miterlimit:4;stroke-dasharray:none;stroke-dashoffset:0;stroke-opacity:1;-inkscape-stroke:none;stop-color:#000000;stop-opacity:1"
         id="path10527" />
      <path
         d="m 327.42191,178.22487 c 0.20333,-0.5299 -0.26147,-1.41406 -1.40011,-2.66332 -1.17228,-1.60598 -2.54804,-2.6756 -3.6412,-3.9763 -3.704,-2.51648 -7.83773,-4.60618 -11.89597,-6.63648 -0.10535,-0.0515 -0.52448,-0.12784 -0.93143,-0.16953 -7.79541,1.1709 12.88699,10.84497 15.48495,12.6934 0.77584,0.70175 1.63568,0.88683 2.38376,0.75231 z"
         style="font-variation-settings:normal;opacity:1;vector-effect:none;fill:#ff0000;fill-opacity:1;stroke-width:0.0911872;stroke-linecap:butt;stroke-linejoin:miter;stroke-miterlimit:4;stroke-dasharray:none;stroke-dashoffset:0;stroke-opacity:1;-inkscape-stroke:none;stop-color:#000000;stop-opacity:1"
         id="path10801" />
    </g>
  </g>
</svg>
