<?xml version="1.0" encoding="UTF-8" standalone="no"?>
<!-- Created with Inkscape (http://www.inkscape.org/) -->

<svg
   version="1.1"
   id="svg55"
   width="68.725456mm"
   height="70.245811mm"
   viewBox="0 0 207.7998 212.39678"
   sodipodi:docname="frog_soap_dishB.svg"
   inkscape:version="1.1.2 (0a00cf5339, 2022-02-04)"
   xmlns:inkscape="http://www.inkscape.org/namespaces/inkscape"
   xmlns:sodipodi="http://sodipodi.sourceforge.net/DTD/sodipodi-0.dtd"
   xmlns="http://www.w3.org/2000/svg"
   xmlns:svg="http://www.w3.org/2000/svg">
  <defs
     id="defs59">
    <inkscape:path-effect
       effect="spiro"
       id="path-effect13134"
       is_visible="true"
       lpeversion="1" />
  </defs>
  <sodipodi:namedview
     id="namedview57"
     pagecolor="#ffffff"
     bordercolor="#666666"
     borderopacity="1.0"
     inkscape:pageshadow="2"
     inkscape:pageopacity="0.0"
     inkscape:pagecheckerboard="0"
     showgrid="false"
     inkscape:zoom="2.6878307"
     inkscape:cx="178.39665"
     inkscape:cy="128.72835"
     inkscape:window-width="1920"
     inkscape:window-height="1061"
     inkscape:window-x="1366"
     inkscape:window-y="0"
     inkscape:window-maximized="1"
     inkscape:current-layer="g61"
     fit-margin-top="0"
     fit-margin-left="0"
     fit-margin-right="0"
     fit-margin-bottom="0"
     scale-x="0.8"
     units="mm"
     width="70mm"
     inkscape:document-units="mm" />
  <g
     inkscape:groupmode="layer"
     inkscape:label="Image"
     id="g61"
     transform="translate(-177.282, -122.323)">
    <path
       style="font-variation-settings:normal;opacity:1;vector-effect:none;fill:#000000;fill-opacity:1;stroke-width:0.113984;stroke-linecap:butt;stroke-linejoin:miter;stroke-miterlimit:4;stroke-dasharray:none;stroke-dashoffset:0;stroke-opacity:1;-inkscape-stroke:none;stop-color:#000000;stop-opacity:1"
       d="m 298.34118,334.46886 c -0.78767,-0.44223 -0.9089,-0.53371 -1.41229,-1.06577 -1.40469,-1.80089 -1.34431,-4.12038 -1.01416,-6.30954 0.0653,-0.0816 0.1494,-0.43047 0.18671,-0.77526 0.81777,-4.47367 4.83541,-6.37445 6.28676,-10.37444 1.26455,-2.9205 2.22977,-4.74135 1.52835,-7.97697 -0.17552,-0.90413 -0.27252,-1.75458 -0.39772,-2.67862 -0.43932,-5.74204 0.17792,-11.53227 1.68389,-16.77552 0.51129,-1.56473 1.07688,-3.37098 1.40192,-4.89708 0.44441,-2.03609 -0.32151,-5.69844 0.56868,-7.03837 0.15596,-0.2298 0.31608,-0.54752 0.35587,-0.70604 0.0489,-0.47645 -2.09182,-0.33531 -2.69111,-0.38465 -2.00566,-0.1678 -3.57205,-0.003 -4.48437,0.47074 -4.71978,1.02117 -14.33601,0.64152 -15.51568,6.59957 -1.74879,7.85204 3.82927,11.05079 5.98004,16.86645 0.39335,1.48396 1.62716,4.54678 0.33735,5.81234 -1.73537,0.98485 -5.70151,1.59117 -7.51833,0.54858 -0.094,-0.0542 -0.24792,-0.1288 -0.34195,-0.1658 -2.28832,-1.11425 -3.22468,-3.67659 -3.24057,-5.35951 -0.008,-1.15981 -0.0598,-1.89566 -0.13981,-1.99472 -0.0698,-0.0863 -0.16295,-0.32597 -0.20713,-0.53252 -3.36304,-3.79098 -3.84501,-7.44344 -4.09722,-12.24313 -0.01,-0.60847 -0.0564,-1.14459 -0.10314,-1.19134 -4.27234,3.98498 -8.50543,8.54163 -12.44269,11.35937 -0.78032,0.81976 -1.66248,1.70912 -1.7349,2.52886 0.0891,1.70882 -0.82242,4.10048 -1.98654,4.99672 -4.80371,2.04922 -4.92565,0.59739 -7.97082,-1.56737 -2.24929,-1.81949 -2.94638,-4.62874 -0.81511,-6.81313 1.48284,-1.58018 2.7739,-2.31496 4.71188,-2.56463 2.26123,-0.32859 3.53424,-2.24773 5.05671,-3.59049 2.09865,-1.95888 3.83706,-3.73041 5.57025,-5.72473 0.12715,-0.16164 0.63892,-0.68365 1.13728,-1.16003 1.14625,-1.09571 1.78341,-1.76873 2.02931,-2.14356 1.36598,-1.45658 2.81271,-2.92188 3.84076,-4.69523 0.19716,-0.72692 -1.80585,-1.53798 -2.66796,-1.78741 -1.18705,-0.32982 -1.76921,-0.37725 -3.02253,-0.24628 -2.28638,0.46269 -5.38854,-0.79388 -7.05651,-0.48864 0,0.12367 -0.17544,0.752 -0.38988,1.39632 -0.21444,0.64428 -0.42573,1.39897 -0.46954,1.67707 -3.35299,6.07621 -10.12098,9.28562 -14.12683,11.12348 -4.00584,1.83785 -6.99434,2.23449 -8.57519,2.45617 -1.58086,0.22167 -1.24714,0.22285 -1.68597,0.34702 -8.58513,0.0815 -15.25289,1.36518 -23.33173,0.27362 -0.64614,-0.0867 -1.37997,-0.20848 -1.63074,-0.27053 -0.25076,-0.0621 -5.48431,0.2653 -5.8918,0.16346 -3.90889,0.28714 -3.75534,0.0442 -7.11088,0.13646 -0.89236,0.0445 -0.64445,-0.24362 -3.84395,-0.0978 -3.1995,0.14572 -9.25005,-5.30307 -8.785,-10.08421 -0.68648,-4.29397 1.64836,-7.09902 2.05114,-11.30037 0.48613,-3.8743 4.03091,-14.14078 1.70642,-14.16895 -0.3194,-3e-5 -0.84564,-0.10074 -1.16939,-0.2238 -1.69933,-0.61077 -4.79398,-0.97095 -5.67002,-2.60554 -2.58246,-2.80166 -3.89219,-5.7789 -3.93227,-8.86606 0.27369,-2.68559 1.34955,-5.32741 3.28286,-7.19206 0.88982,-0.81983 1.81887,-1.73831 2.57602,-2.5711 4.21667,-2.83242 8.19377,-4.94241 12.53588,-6.04477 0.12411,-0.0642 3.9102,1.68472 10.36074,1.60235 6.45054,-0.0824 15.35437,-4.0139 28.90903,-9.6679 8.58856,-3.17586 12.85992,-11.75704 3.45614,-16.16648 -2.42564,-1.7114 -5.81932,-3.58762 -7.01402,-3.2586 -1.07489,0.97215 -1.89325,2.32181 -3.05317,3.14479 -3.86872,-0.0748 -3.65804,0.0932 -5.42813,-2.15663 -0.90004,-0.58512 -0.89006,-3.19944 -1.33663,-3.49812 -0.14253,-0.0934 -0.46119,-0.16626 -0.70814,-0.16196 -9.08261,3.33325 -15.85589,8.71342 -20.38803,7.96218 -3.691,-0.66553 -2.04071,-7.58453 0.8783,-7.74656 2.3681,-0.35521 4.65966,-1.58179 6.6526,-2.31963 1.28691,-0.55807 2.41287,-0.9714 3.6379,-1.56052 -0.70399,-0.92533 -2.4049,-1.85432 -3.58816,-2.97985 -0.67362,-0.7278 -1.74079,-1.49373 -2.45944,-1.76523 -0.63056,-0.23821 -3.14098,-0.32902 -3.81847,-0.13814 -1.54708,0.16198 -2.83393,0.31262 -4.2183,0.50263 -0.26699,0.16502 -2.51635,-0.82951 -2.94459,-1.30192 -0.59672,-1.0451 -1.52157,-1.96457 -1.95548,-2.91777 -0.33617,-1.53575 0.74353,-2.70914 1.9431,-3.80894 0.78125,-0.35695 2.68803,-0.80798 3.46239,-0.96735 6.73312,2.12865 12.79494,5.27794 19.03473,5.59017 1.25878,0.0315 2.48181,0.0854 2.71788,0.1197 1.29121,0.18764 2.14493,-0.37325 2.71954,-1.78672 0.26622,-0.61295 0.37996,-1.24235 0.45889,-1.89528 -0.47457,-2.02033 -1.60849,-3.73639 -2.74671,-5.39969 -1.59878,-2.13681 -1.87274,-4.81859 -3.34258,-6.90923 -0.21696,-0.30619 -0.56423,-1.01133 -0.77168,-1.56696 -0.20745,-0.55564 -0.54705,-1.33013 -0.75465,-1.72108 -0.70813,-1.02047 -1.47986,-1.97187 -2.54612,-2.56874 -4.68536,-0.0335 -5.06423,-1.45914 -6.74712,-4.72046 -0.0643,-0.11986 -0.14213,-0.73536 -0.17299,-1.3678 -0.10775,-2.20858 -0.0487,-2.49688 0.64429,-3.14461 0.52309,-0.48893 4.04406,-1.31393 5.26471,-1.52019 3.02119,-0.27739 5.86481,1.22991 6.82429,3.57089 0,0.13305 0.20003,0.63652 0.44449,1.11883 0.84583,1.65451 1.03818,3.13569 1.83289,4.92013 1.22451,3.60274 3.68801,6.73148 5.14814,10.17299 1.19136,4.95546 5.67147,7.52609 8.3124,11.35918 2.98771,0.1636 4.05061,6.25934 5.04009,6.39709 0.91292,0.73105 2.28782,0.79504 3.113,1.33931 5.62882,3.44802 13.52159,5.9146 14.65516,8.12979 0.23548,7.19922 1.79418,12.55601 7.16134,9.43414 3.4826,-2.22716 7.80794,-3.76869 11.11343,-4.93443 10.59579,-2.89464 22.61802,-1.89104 32.37142,-1.37786 1.91879,0.20668 3.52278,0.36133 5.37488,0.84733 0.23224,0.12995 1.88548,0.31784 2.29052,0.26032 0.38216,-0.0543 0.31692,-0.16534 -0.31345,-0.5335 -1.69136,-1.1228 -2.86746,-1.57612 -4.28297,-2.45066 -2.10779,-1.1112 -4.17708,-2.38408 -6.12044,-3.79837 -7.44141,-5.31368 -13.36126,-11.77493 -18.45279,-18.56228 -0.94611,-1.4781 -1.45493,-3.00745 -2.13227,-4.45354 -1.18307,-3.05862 -1.97886,-6.08571 1.39558,-7.89388 1.01592,-0.74762 2.23157,-2.08677 2.59114,-3.10467 -0.18889,-0.45602 -1.05599,-1.3787 -1.50749,-1.60412 -3.34406,-3.54914 -1.57321,-7.46801 3.26187,-6.97236 5.24631,1.63106 9.40584,1.25447 13.82623,2.53378 1.50039,0.17825 3.73613,1.49523 2.40856,-0.6665 -1.89337,-3.68381 -4.64215,-5.14395 -7.40864,-7.9777 -2.20365,-2.38878 -4.59578,-4.00604 -7.05941,-6.03179 -0.21941,-0.2286 -0.67194,-0.54543 -1.00561,-0.70406 -2.23966,-1.28592 -4.74924,-3.80995 -6.86846,-4.61974 -1.76685,-1.27941 -3.28706,-0.47199 -5.04855,-1.23186 -0.30731,-0.003 -1.78517,-1.49517 -2.04673,-2.06659 -0.4905,-5.36712 1.7436,-6.53874 6.42518,-6.78946 2.22609,0.27305 4.59812,1.57427 5.11893,4.12103 0.19929,0.33956 0.20911,0.73948 0.27318,1.06654 0.8744,1.43715 2.52274,2.32994 4.03278,3.15913 2.86777,1.36462 5.40626,3.58632 8.15821,4.82231 3.1743,1.13058 5.36039,3.02534 8.5086,3.94608 0.64432,0.27899 1.32782,0.32455 2.03494,0.48105 1.1446,0.22346 1.99222,-0.0628 2.92934,-0.4709 2.8081,-1.70025 1.47343,-4.66158 0.85094,-7.22651 -0.33098,-1.82923 -0.65037,-3.23653 -1.05877,-3.67568 -0.64996,-0.87245 -1.44049,-1.24586 -2.13933,-1.86143 -1.2221,-1.12588 -1.92286,-2.51237 -2.38317,-4.08409 0.1859,-2.83287 2.66798,-5.26566 5.23218,-4.44198 0.48896,0.1108 2.41505,1.50671 3.19162,2.3131 0.754,0.82988 2.33006,3.97302 3.01273,4.80061 2.15654,4.27552 2.1824,6.72589 3.37782,10.58262 0.86347,3.40175 0.0576,4.01689 0.9149,6.0969 2.7006,6.13845 7.20297,10.7716 12.76807,14.30699 5.92876,6.98023 12.01541,10.60267 16.3269,16.11604 6.61746,6.94354 7.65307,12.51995 13.53694,18.98654 2.82945,5.36662 7.56261,10.1043 10.9309,14.17551 1.8387,1.8223 3.02084,3.29126 4.57518,5.11059 0.61786,0.62407 1.70412,2.48221 1.70412,2.91505 0.18878,3.53003 -1.71127,3.69329 -4.14888,3.51716 -6.72029,-0.61386 -9.45255,-3.39634 -15.19179,-4.44458 0.19046,0.93097 0.94846,1.58158 1.44602,2.25405 1.37954,1.50847 1.86772,2.63628 2.70625,4.23094 0.48522,0.91901 0.50628,0.9907 0.9881,3.36253 0.21796,1.07297 0.3438,2.90295 0.24134,3.50941 -0.0621,0.36759 -0.16694,0.51979 -0.51804,0.75215 -4.04261,4.31396 -5.65203,11.09051 -7.84001,15.96097 1.08486,0.71591 4.96814,-1.46808 7.36752,-1.43057 4.01673,0.0128 9.85901,-0.0613 12.75635,2.61663 1.35748,1.0072 1.04568,2.2867 1.05266,3.81033 -0.98763,2.11439 -0.73595,2.74118 -2.97441,7.08835 -4.67769,7.22358 -5.94383,7.40295 -10.74246,11.796 -4.14113,4.43389 -10.2021,9.39634 -12.95476,12.84472 -2.75266,3.44839 -4.69939,7.9771 -7.26467,7.72096 -0.61757,-0.15501 -1.74953,-0.10766 -1.89128,0.0791 -0.21881,0.2883 -0.68021,0.56467 -0.94267,0.56467 -4.7787,3.35274 -9.82568,12.35422 -9.8047,16.82606 0.22422,2.57538 0.91712,4.46142 0.90958,6.44946 0.1091,2.59319 -0.74801,5.13536 -2.39119,6.65157 -0.33768,0.29765 -0.61394,0.62983 -0.61394,0.73814 -4.76185,2.60558 -8.30725,2.27619 -7.82202,-1.83944 0.18779,-1.04946 1.05213,-3.17365 0.86888,-3.66385 -0.19065,-0.51017 -0.2576,-0.52724 -0.44717,-0.11399 -0.079,0.17241 -0.81404,1.18466 -0.90227,1.36213 -2.13329,4.48893 -7.42926,10.79285 -12.27041,6.16914 -1.16291,-0.83052 -2.00802,-1.57939 -2.98381,-2.62119 -0.51757,-0.55067 -1.04921,-1.48214 -1.17156,-2.05266 -0.14047,-0.65499 -0.39687,-1.19209 -0.60223,-1.26154 -0.0796,-0.027 -0.47827,0.31028 -0.88578,0.7494 -0.76193,0.82109 -1.48743,1.93055 -2.17338,3.32364 -0.37794,0.76752 -0.39115,0.83922 -0.38811,2.10792 0.003,1.04848 0.0467,1.40534 0.21925,1.76932 0.15962,0.33671 0.2228,0.754 0.24164,1.59577 -0.0187,1.2875 -0.56446,2.88523 -1.47693,3.869 -1.66161,1.32185 -3.93362,2.21273 -6.01938,2.40958 -0.49571,0.042 -0.69703,-9.8e-4 -1.11756,-0.23671 z"
       id="path199"
       sodipodi:nodetypes="cccccccccccccccccccscccccccccccscccccsczzccscczccccccccczccccccccccccscccccccsccccscccsscccccccccccccsccccccccccccccccccccccccccccccccccccccccccccssccccccczcscccccccscccssssssccccc" />
  </g>
</svg>
